<svg xmlns="http://www.w3.org/2000/svg" width="512" height="512" viewBox="0 0 512 512">
  <!-- Maskable icon needs safe zone (inner 80%) - content centered -->
  <rect width="512" height="512" fill="#000000"/>
  <!-- Skull shape centered in safe zone -->
  <g transform="translate(256, 220)" fill="#10b981">
    <ellipse cx="0" cy="-20" rx="70" ry="62" fill="#10b981" opacity="0.9"/>
    <ellipse cx="-26" cy="-26" rx="18" ry="20" fill="#000000"/>
    <ellipse cx="26" cy="-26" rx="18" ry="20" fill="#000000"/>
    <ellipse cx="-26" cy="-26" rx="9" ry="10" fill="#10b981" opacity="0.3"/>
    <ellipse cx="26" cy="-26" rx="9" ry="10" fill="#10b981" opacity="0.3"/>
    <path d="M-8 2 L0 14 L8 2 Z" fill="#000000"/>
    <rect x="-48" y="18" width="96" height="30" rx="8" fill="#10b981" opacity="0.8"/>
    <rect x="-35" y="18" width="8" height="14" rx="2" fill="#000000"/>
    <rect x="-18" y="18" width="8" height="14" rx="2" fill="#000000"/>
    <rect x="-1" y="18" width="8" height="14" rx="2" fill="#000000"/>
    <rect x="16" y="18" width="8" height="14" rx="2" fill="#000000"/>
    <rect x="33" y="18" width="8" height="14" rx="2" fill="#000000"/>
  </g>
  <text x="256" y="335" text-anchor="middle" font-family="system-ui, sans-serif" font-weight="900" font-size="36" fill="#10b981" letter-spacing="6">CRUSADE</text>
</svg>
