<svg xmlns="http://www.w3.org/2000/svg" width="512" height="512" viewBox="0 0 512 512">
  <rect width="512" height="512" rx="64" fill="#000000"/>
  <rect x="8" y="8" width="496" height="496" rx="56" fill="none" stroke="#10b981" stroke-width="3" opacity="0.4"/>
  <!-- Skull shape -->
  <g transform="translate(256, 200)" fill="#10b981">
    <ellipse cx="0" cy="-20" rx="85" ry="75" fill="#10b981" opacity="0.9"/>
    <ellipse cx="-32" cy="-30" rx="22" ry="24" fill="#000000"/>
    <ellipse cx="32" cy="-30" rx="22" ry="24" fill="#000000"/>
    <ellipse cx="-32" cy="-30" rx="11" ry="13" fill="#10b981" opacity="0.3"/>
    <ellipse cx="32" cy="-30" rx="11" ry="13" fill="#10b981" opacity="0.3"/>
    <path d="M-10 2 L0 16 L10 2 Z" fill="#000000"/>
    <rect x="-58" y="22" width="116" height="38" rx="10" fill="#10b981" opacity="0.8"/>
    <rect x="-42" y="22" width="10" height="16" rx="2" fill="#000000"/>
    <rect x="-22" y="22" width="10" height="16" rx="2" fill="#000000"/>
    <rect x="-2" y="22" width="10" height="16" rx="2" fill="#000000"/>
    <rect x="18" y="22" width="10" height="16" rx="2" fill="#000000"/>
    <rect x="38" y="22" width="10" height="16" rx="2" fill="#000000"/>
    <!-- Laurels -->
    <path d="M-96 -52 Q-106 -92 -80 -106 Q-74 -80 -90 -58" fill="none" stroke="#10b981" stroke-width="5" opacity="0.6"/>
    <path d="M-100 -26 Q-118 -58 -96 -80 Q-86 -52 -96 -32" fill="none" stroke="#10b981" stroke-width="5" opacity="0.6"/>
    <path d="M-98 0 Q-122 -24 -108 -50 Q-94 -28 -96 -4" fill="none" stroke="#10b981" stroke-width="5" opacity="0.6"/>
    <path d="M96 -52 Q106 -92 80 -106 Q74 -80 90 -58" fill="none" stroke="#10b981" stroke-width="5" opacity="0.6"/>
    <path d="M100 -26 Q118 -58 96 -80 Q86 -52 96 -32" fill="none" stroke="#10b981" stroke-width="5" opacity="0.6"/>
    <path d="M98 0 Q122 -24 108 -50 Q94 -28 96 -4" fill="none" stroke="#10b981" stroke-width="5" opacity="0.6"/>
  </g>
  <!-- Text -->
  <text x="256" y="365" text-anchor="middle" font-family="system-ui, sans-serif" font-weight="900" font-size="44" fill="#10b981" letter-spacing="8">CRUSADE</text>
  <text x="256" y="410" text-anchor="middle" font-family="system-ui, sans-serif" font-weight="700" font-size="28" fill="#10b981" opacity="0.6" letter-spacing="12">COMMAND</text>
  <!-- Corner accents -->
  <path d="M20 60 L20 20 L60 20" fill="none" stroke="#10b981" stroke-width="3" opacity="0.3"/>
  <path d="M452 20 L492 20 L492 60" fill="none" stroke="#10b981" stroke-width="3" opacity="0.3"/>
  <path d="M20 452 L20 492 L60 492" fill="none" stroke="#10b981" stroke-width="3" opacity="0.3"/>
  <path d="M452 492 L492 492 L492 452" fill="none" stroke="#10b981" stroke-width="3" opacity="0.3"/>
</svg>
